# xmcd CD database file
#
# Track frame offsets:
#	150
#	21596
#	46716
#	75384
#	105043
#	139099
#	156450
#	188402
#	214068
#	246057
#
# Disc length: 3489 seconds
#
# Revision: 1
# Processed by: cddbd v1.5.2PL0 Copyright (c) Steve Scherf et al.
# Submitted via: CDex 1.70beta2
#
DISCID=740d9f0a
DTITLE=Mariane Bitran feat. Makiko Hirabayashi Quintet and Bob Rockwell - Grey To Blue
DYEAR=2008
DGENRE=Jazz
TTITLE0=Looking For Herbert
TTITLE1=Fly Bird Fly
TTITLE2=Beaty Of Doubt
TTITLE3=Fula Flute
TTITLE4=Grey To Blue
TTITLE5=Bugs
TTITLE6=Voices Of The Sands
TTITLE7=Snapshot
TTITLE8=Joy
TTITLE9=Tit Er Jeg Glad
EXTD=YEAR: 2008
EXTT0=
EXTT1=
EXTT2=
EXTT3=
EXTT4=
EXTT5=
EXTT6=
EXTT7=
EXTT8=
EXTT9=
PLAYORDER=
